{
  "accessors": [
    {
      "bufferView": 2,
      "componentType": 5126,
      "count": 5406,
      "max": [
        17.337644577026367,
        17.483089447021484,
        27.11481475830078
      ],
      "min": [
        -17.337644577026367,
        -17.483089447021484,
        -27.11481475830078
      ],
      "type": "VEC3"
    },
    {
      "bufferView": 2,
      "byteOffset": 64872,
      "componentType": 5126,
      "count": 5406,
      "type": "VEC3"
    },
    {
      "bufferView": 3,
      "componentType": 5126,
      "count": 5406,
      "type": "VEC4"
    },
    {
      "bufferView": 1,
      "componentType": 5126,
      "count": 5406,
      "type": "VEC2"
    },
    {
      "bufferView": 1,
      "byteOffset": 43248,
      "componentType": 5126,
      "count": 5406,
      "type": "VEC2"
    },
    {
      "bufferView": 1,
      "byteOffset": 86496,
      "componentType": 5126,
      "count": 5406,
      "type": "VEC2"
    },
    {
      "bufferView": 1,
      "byteOffset": 129744,
      "componentType": 5126,
      "count": 5406,
      "type": "VEC2"
    },
    {
      "bufferView": 1,
      "byteOffset": 172992,
      "componentType": 5126,
      "count": 5406,
      "type": "VEC2"
    },
    {
      "bufferView": 1,
      "byteOffset": 216240,
      "componentType": 5126,
      "count": 5406,
      "type": "VEC2"
    },
    {
      "bufferView": 0,
      "componentType": 5125,
      "count": 28524,
      "type": "SCALAR"
    }
  ],
  "asset": {
    "generator": "fab-model-conversion",
    "version": "2.0"
  },
  "bufferViews": [
    {
      "buffer": 0,
      "byteLength": 114096,
      "target": 34963
    },
    {
      "buffer": 0,
      "byteLength": 259488,
      "byteOffset": 114096,
      "byteStride": 8,
      "target": 34962
    },
    {
      "buffer": 0,
      "byteLength": 129744,
      "byteOffset": 373584,
      "byteStride": 12,
      "target": 34962
    },
    {
      "buffer": 0,
      "byteLength": 86496,
      "byteOffset": 503328,
      "byteStride": 16,
      "target": 34962
    }
  ],
  "buffers": [
    {
      "byteLength": 589824,
      "uri": "scene.bin"
    }
  ],
  "images": [
    {
      "uri": "textures/chair_baseColor.png"
    },
    {
      "uri": "textures/chair_metallicRoughness.png"
    },
    {
      "uri": "textures/chair_normal.png"
    }
  ],
  "materials": [
    {
      "doubleSided": true,
      "name": "chair",
      "normalTexture": {
        "index": 2
      },
      "occlusionTexture": {
        "index": 1
      },
      "pbrMetallicRoughness": {
        "baseColorTexture": {
          "index": 0
        },
        "metallicRoughnessTexture": {
          "index": 1
        }
      }
    }
  ],
  "meshes": [
    {
      "name": "chair_chair_0",
      "primitives": [
        {
          "attributes": {
            "NORMAL": 1,
            "POSITION": 0,
            "TANGENT": 2,
            "TEXCOORD_0": 3,
            "TEXCOORD_1": 4,
            "TEXCOORD_2": 5,
            "TEXCOORD_3": 6,
            "TEXCOORD_4": 7,
            "TEXCOORD_5": 8
          },
          "indices": 9,
          "material": 0,
          "mode": 4
        }
      ]
    }
  ],
  "nodes": [
    {
      "children": [
        1
      ],
      "matrix": [
        1.0,
        0.0,
        0.0,
        0.0,
        0.0,
        2.220446049250313e-16,
        -1.0,
        0.0,
        0.0,
        1.0,
        2.220446049250313e-16,
        0.0,
        0.0,
        0.0,
        0.0,
        1.0
      ],
      "name": "Sketchfab_model"
    },
    {
      "children": [
        2
      ],
      "matrix": [
        0.009999999776482582,
        0.0,
        0.0,
        0.0,
        0.0,
        0.0,
        0.009999999776482582,
        0.0,
        0.0,
        -0.009999999776482582,
        0.0,
        0.0,
        0.0,
        0.0,
        0.0,
        1.0
      ],
      "name": "chair.fbx"
    },
    {
      "children": [
        3
      ],
      "name": "RootNode"
    },
    {
      "children": [
        4
      ],
      "matrix": [
        1.0,
        0.0,
        0.0,
        0.0,
        0.0,
        2.220446049250313e-16,
        -1.0,
        0.0,
        0.0,
        1.0,
        2.220446049250313e-16,
        0.0,
        0.0,
        27.117603302001953,
        0.0,
        1.0
      ],
      "name": "chair"
    },
    {
      "mesh": 0,
      "name": "chair_chair_0"
    }
  ],
  "samplers": [
    {
      "magFilter": 9729,
      "minFilter": 9987,
      "wrapS": 10497,
      "wrapT": 10497
    }
  ],
  "scene": 0,
  "scenes": [
    {
      "name": "Sketchfab_Scene",
      "nodes": [
        0
      ]
    }
  ],
  "textures": [
    {
      "sampler": 0,
      "source": 0
    },
    {
      "sampler": 0,
      "source": 1
    },
    {
      "sampler": 0,
      "source": 2
    }
  ]
}
