{
  "accessors": [
    {
      "bufferView": 2,
      "componentType": 5126,
      "count": 697,
      "max": [
        0.8635810613632202,
        1.0055776834487915,
        0.4081767797470093
      ],
      "min": [
        -1.0555784702301025,
        -1.006496548652649,
        -0.17898030579090118
      ],
      "type": "VEC3"
    },
    {
      "bufferView": 2,
      "byteOffset": 8364,
      "componentType": 5126,
      "count": 697,
      "type": "VEC3"
    },
    {
      "bufferView": 1,
      "componentType": 5126,
      "count": 697,
      "type": "VEC2"
    },
    {
      "bufferView": 1,
      "byteOffset": 5576,
      "componentType": 5126,
      "count": 697,
      "type": "VEC2"
    },
    {
      "bufferView": 0,
      "componentType": 5125,
      "count": 2373,
      "type": "SCALAR"
    },
    {
      "bufferView": 2,
      "byteOffset": 16728,
      "componentType": 5126,
      "count": 793,
      "max": [
        0.8132396340370178,
        0.6668132543563843,
        1.4155805110931396
      ],
      "min": [
        -0.8081366419792175,
        -0.4285900294780731,
        0.6495245099067688
      ],
      "type": "VEC3"
    },
    {
      "bufferView": 2,
      "byteOffset": 26244,
      "componentType": 5126,
      "count": 793,
      "type": "VEC3"
    },
    {
      "bufferView": 1,
      "byteOffset": 11152,
      "componentType": 5126,
      "count": 793,
      "type": "VEC2"
    },
    {
      "bufferView": 0,
      "byteOffset": 9492,
      "componentType": 5125,
      "count": 2760,
      "type": "SCALAR"
    },
    {
      "bufferView": 2,
      "byteOffset": 35760,
      "componentType": 5126,
      "count": 407,
      "max": [
        0.3208923041820526,
        0.5155308246612549,
        0.8098461627960205
      ],
      "min": [
        -0.3157745897769928,
        -0.5230154991149902,
        0.7198286652565002
      ],
      "type": "VEC3"
    },
    {
      "bufferView": 2,
      "byteOffset": 40644,
      "componentType": 5126,
      "count": 407,
      "type": "VEC3"
    },
    {
      "bufferView": 1,
      "byteOffset": 17496,
      "componentType": 5126,
      "count": 407,
      "type": "VEC2"
    },
    {
      "bufferView": 0,
      "byteOffset": 20532,
      "componentType": 5125,
      "count": 1440,
      "type": "SCALAR"
    },
    {
      "bufferView": 2,
      "byteOffset": 45528,
      "componentType": 5126,
      "count": 30,
      "max": [
        0.05959382280707359,
        0.05864628776907921,
        0.6568750143051147
      ],
      "min": [
        -0.057603735476732254,
        -0.060893889516592026,
        -0.04708537459373474
      ],
      "type": "VEC3"
    },
    {
      "bufferView": 2,
      "byteOffset": 45888,
      "componentType": 5126,
      "count": 30,
      "type": "VEC3"
    },
    {
      "bufferView": 1,
      "byteOffset": 20752,
      "componentType": 5126,
      "count": 30,
      "type": "VEC2"
    },
    {
      "bufferView": 0,
      "byteOffset": 26292,
      "componentType": 5125,
      "count": 66,
      "type": "SCALAR"
    },
    {
      "bufferView": 2,
      "byteOffset": 46248,
      "componentType": 5126,
      "count": 180,
      "max": [
        0.6950991749763489,
        0.7234915494918823,
        1.0179271697998047
      ],
      "min": [
        -0.6899963617324829,
        -0.728892982006073,
        0.8224313259124756
      ],
      "type": "VEC3"
    },
    {
      "bufferView": 2,
      "byteOffset": 48408,
      "componentType": 5126,
      "count": 180,
      "type": "VEC3"
    },
    {
      "bufferView": 1,
      "byteOffset": 20992,
      "componentType": 5126,
      "count": 180,
      "type": "VEC2"
    },
    {
      "bufferView": 1,
      "byteOffset": 22432,
      "componentType": 5126,
      "count": 180,
      "type": "VEC2"
    },
    {
      "bufferView": 0,
      "byteOffset": 26556,
      "componentType": 5125,
      "count": 804,
      "type": "SCALAR"
    },
    {
      "bufferView": 2,
      "byteOffset": 50568,
      "componentType": 5126,
      "count": 949,
      "max": [
        0.7096473574638367,
        -0.4866749048233032,
        3.0616836547851563
      ],
      "min": [
        -0.7045444846153259,
        -0.9492433071136475,
        0.7012916803359985
      ],
      "type": "VEC3"
    },
    {
      "bufferView": 2,
      "byteOffset": 61956,
      "componentType": 5126,
      "count": 949,
      "type": "VEC3"
    },
    {
      "bufferView": 3,
      "componentType": 5126,
      "count": 949,
      "type": "VEC4"
    },
    {
      "bufferView": 1,
      "byteOffset": 23872,
      "componentType": 5126,
      "count": 949,
      "type": "VEC2"
    },
    {
      "bufferView": 1,
      "byteOffset": 31464,
      "componentType": 5126,
      "count": 949,
      "type": "VEC2"
    },
    {
      "bufferView": 0,
      "byteOffset": 29772,
      "componentType": 5125,
      "count": 2832,
      "type": "SCALAR"
    },
    {
      "bufferView": 2,
      "byteOffset": 73344,
      "componentType": 5126,
      "count": 140,
      "max": [
        0.709244430065155,
        -0.6246308088302612,
        2.5760865211486816
      ],
      "min": [
        -0.7041415572166443,
        -0.8649432063102722,
        0.751467227935791
      ],
      "type": "VEC3"
    },
    {
      "bufferView": 2,
      "byteOffset": 75024,
      "componentType": 5126,
      "count": 140,
      "type": "VEC3"
    },
    {
      "bufferView": 1,
      "byteOffset": 39056,
      "componentType": 5126,
      "count": 140,
      "type": "VEC2"
    },
    {
      "bufferView": 0,
      "byteOffset": 41100,
      "componentType": 5125,
      "count": 588,
      "type": "SCALAR"
    },
    {
      "bufferView": 2,
      "byteOffset": 76704,
      "componentType": 5126,
      "count": 196,
      "max": [
        -0.25140103697776794,
        -0.7973921298980713,
        -0.12828278541564941
      ],
      "min": [
        -0.3871619403362274,
        -1.0210167169570923,
        -0.4300435185432434
      ],
      "type": "VEC3"
    },
    {
      "bufferView": 2,
      "byteOffset": 79056,
      "componentType": 5126,
      "count": 196,
      "type": "VEC3"
    },
    {
      "bufferView": 1,
      "byteOffset": 40176,
      "componentType": 5126,
      "count": 196,
      "type": "VEC2"
    },
    {
      "bufferView": 1,
      "byteOffset": 41744,
      "componentType": 5126,
      "count": 196,
      "type": "VEC2"
    },
    {
      "bufferView": 0,
      "byteOffset": 43452,
      "componentType": 5125,
      "count": 900,
      "type": "SCALAR"
    },
    {
      "bufferView": 2,
      "byteOffset": 81408,
      "componentType": 5126,
      "count": 196,
      "max": [
        0.8882921934127808,
        -0.4874476492404938,
        -0.12828278541564941
      ],
      "min": [
        0.6390410661697388,
        -0.6785960793495178,
        -0.4300435185432434
      ],
      "type": "VEC3"
    },
    {
      "bufferView": 2,
      "byteOffset": 83760,
      "componentType": 5126,
      "count": 196,
      "type": "VEC3"
    },
    {
      "bufferView": 1,
      "byteOffset": 43312,
      "componentType": 5126,
      "count": 196,
      "type": "VEC2"
    },
    {
      "bufferView": 1,
      "byteOffset": 44880,
      "componentType": 5126,
      "count": 196,
      "type": "VEC2"
    },
    {
      "bufferView": 0,
      "byteOffset": 47052,
      "componentType": 5125,
      "count": 900,
      "type": "SCALAR"
    },
    {
      "bufferView": 2,
      "byteOffset": 86112,
      "componentType": 5126,
      "count": 196,
      "max": [
        0.9492157101631165,
        0.7755959033966064,
        -0.12828278541564941
      ],
      "min": [
        0.744206428527832,
        0.5225189924240112,
        -0.4300435185432434
      ],
      "type": "VEC3"
    },
    {
      "bufferView": 2,
      "byteOffset": 88464,
      "componentType": 5126,
      "count": 196,
      "type": "VEC3"
    },
    {
      "bufferView": 1,
      "byteOffset": 46448,
      "componentType": 5126,
      "count": 196,
      "type": "VEC2"
    },
    {
      "bufferView": 1,
      "byteOffset": 48016,
      "componentType": 5126,
      "count": 196,
      "type": "VEC2"
    },
    {
      "bufferView": 0,
      "byteOffset": 50652,
      "componentType": 5125,
      "count": 900,
      "type": "SCALAR"
    },
    {
      "bufferView": 2,
      "byteOffset": 90816,
      "componentType": 5126,
      "count": 196,
      "max": [
        -0.23985379934310913,
        1.0404239892959595,
        -0.12828278541564941
      ],
      "min": [
        -0.49499019980430603,
        0.8215938806533813,
        -0.4300435185432434
      ],
      "type": "VEC3"
    },
    {
      "bufferView": 2,
      "byteOffset": 93168,
      "componentType": 5126,
      "count": 196,
      "type": "VEC3"
    },
    {
      "bufferView": 1,
      "byteOffset": 49584,
      "componentType": 5126,
      "count": 196,
      "type": "VEC2"
    },
    {
      "bufferView": 1,
      "byteOffset": 51152,
      "componentType": 5126,
      "count": 196,
      "type": "VEC2"
    },
    {
      "bufferView": 0,
      "byteOffset": 54252,
      "componentType": 5125,
      "count": 900,
      "type": "SCALAR"
    },
    {
      "bufferView": 2,
      "byteOffset": 95520,
      "componentType": 5126,
      "count": 196,
      "max": [
        -0.939379096031189,
        0.07668258249759674,
        -0.12828278541564941
      ],
      "min": [
        -1.1945440769195557,
        -0.15023554861545563,
        -0.4300435185432434
      ],
      "type": "VEC3"
    },
    {
      "bufferView": 2,
      "byteOffset": 97872,
      "componentType": 5126,
      "count": 196,
      "type": "VEC3"
    },
    {
      "bufferView": 1,
      "byteOffset": 52720,
      "componentType": 5126,
      "count": 196,
      "type": "VEC2"
    },
    {
      "bufferView": 1,
      "byteOffset": 54288,
      "componentType": 5126,
      "count": 196,
      "type": "VEC2"
    },
    {
      "bufferView": 0,
      "byteOffset": 57852,
      "componentType": 5125,
      "count": 900,
      "type": "SCALAR"
    }
  ],
  "asset": {
    "generator": "fab-model-conversion",
    "version": "2.0"
  },
  "bufferViews": [
    {
      "buffer": 0,
      "byteLength": 61452,
      "target": 34963
    },
    {
      "buffer": 0,
      "byteLength": 55856,
      "byteOffset": 61452,
      "byteStride": 8,
      "target": 34962
    },
    {
      "buffer": 0,
      "byteLength": 100224,
      "byteOffset": 117308,
      "byteStride": 12,
      "target": 34962
    },
    {
      "buffer": 0,
      "byteLength": 15184,
      "byteOffset": 217532,
      "byteStride": 16,
      "target": 34962
    }
  ],
  "buffers": [
    {
      "byteLength": 232716,
      "uri": "scene.bin"
    }
  ],
  "images": [
    {
      "uri": "textures/Chair_Mat_baseColor.png"
    },
    {
      "uri": "textures/Chair_Mat_metallicRoughness.png"
    },
    {
      "uri": "textures/BlackPlastic_baseColor.png"
    },
    {
      "uri": "textures/BlackPlastic_metallicRoughness.png"
    },
    {
      "uri": "textures/Middle_Fabric_Mat_baseColor.png"
    },
    {
      "uri": "textures/Middle_Fabric_Mat_metallicRoughness.png"
    },
    {
      "uri": "textures/Back_Mat_baseColor.png"
    },
    {
      "uri": "textures/Back_Mat_metallicRoughness.png"
    },
    {
      "uri": "textures/Back_Mat_normal.png"
    },
    {
      "uri": "textures/Fabric_Mat_baseColor.png"
    },
    {
      "uri": "textures/Roue_Mat_baseColor.png"
    },
    {
      "uri": "textures/Roue_Mat_metallicRoughness.png"
    }
  ],
  "materials": [
    {
      "doubleSided": true,
      "name": "Chair_Mat",
      "pbrMetallicRoughness": {
        "baseColorTexture": {
          "index": 0
        },
        "metallicRoughnessTexture": {
          "index": 1
        }
      }
    },
    {
      "doubleSided": true,
      "name": "BlackPlastic",
      "pbrMetallicRoughness": {
        "baseColorTexture": {
          "index": 2
        },
        "metallicRoughnessTexture": {
          "index": 3
        }
      }
    },
    {
      "doubleSided": true,
      "name": "BlackMetal",
      "pbrMetallicRoughness": {
        "baseColorTexture": {
          "index": 2
        },
        "metallicRoughnessTexture": {
          "index": 3
        }
      }
    },
    {
      "doubleSided": true,
      "name": "GreyMetal",
      "pbrMetallicRoughness": {
        "baseColorTexture": {
          "index": 2
        },
        "metallicRoughnessTexture": {
          "index": 3
        }
      }
    },
    {
      "doubleSided": true,
      "name": "Middle_Fabric_Mat",
      "pbrMetallicRoughness": {
        "baseColorTexture": {
          "index": 4
        },
        "metallicRoughnessTexture": {
          "index": 5
        }
      }
    },
    {
      "doubleSided": true,
      "name": "Back_Mat",
      "normalTexture": {
        "index": 8
      },
      "pbrMetallicRoughness": {
        "baseColorTexture": {
          "index": 6
        },
        "metallicRoughnessTexture": {
          "index": 7
        }
      }
    },
    {
      "alphaMode": "MASK",
      "doubleSided": true,
      "name": "Fabric_Mat",
      "pbrMetallicRoughness": {
        "baseColorTexture": {
          "index": 9
        },
        "metallicFactor": 0.0,
        "roughnessFactor": 0.8211145618000169
      }
    },
    {
      "doubleSided": true,
      "name": "Roue_Mat",
      "pbrMetallicRoughness": {
        "baseColorTexture": {
          "index": 10
        },
        "metallicRoughnessTexture": {
          "index": 11
        }
      }
    }
  ],
  "meshes": [
    {
      "name": "Chair_Chair_Mat_0",
      "primitives": [
        {
          "attributes": {
            "NORMAL": 1,
            "POSITION": 0,
            "TEXCOORD_0": 2,
            "TEXCOORD_1": 3
          },
          "indices": 4,
          "material": 0,
          "mode": 4
        }
      ]
    },
    {
      "name": "Middle.002_BlackPlastic_0",
      "primitives": [
        {
          "attributes": {
            "NORMAL": 6,
            "POSITION": 5,
            "TEXCOORD_0": 7
          },
          "indices": 8,
          "material": 1,
          "mode": 4
        }
      ]
    },
    {
      "name": "Middle.002_BlackMetal_0",
      "primitives": [
        {
          "attributes": {
            "NORMAL": 10,
            "POSITION": 9,
            "TEXCOORD_0": 11
          },
          "indices": 12,
          "material": 2,
          "mode": 4
        }
      ]
    },
    {
      "name": "Middle.002_GreyMetal_0",
      "primitives": [
        {
          "attributes": {
            "NORMAL": 14,
            "POSITION": 13,
            "TEXCOORD_0": 15
          },
          "indices": 16,
          "material": 3,
          "mode": 4
        }
      ]
    },
    {
      "name": "Middle_Fabric.001_Middle_Fabric_Mat_0",
      "primitives": [
        {
          "attributes": {
            "NORMAL": 18,
            "POSITION": 17,
            "TEXCOORD_0": 19,
            "TEXCOORD_1": 20
          },
          "indices": 21,
          "material": 4,
          "mode": 4
        }
      ]
    },
    {
      "name": "Back.002_Back_Mat_0",
      "primitives": [
        {
          "attributes": {
            "NORMAL": 23,
            "POSITION": 22,
            "TANGENT": 24,
            "TEXCOORD_0": 25,
            "TEXCOORD_1": 26
          },
          "indices": 27,
          "material": 5,
          "mode": 4
        }
      ]
    },
    {
      "name": "Fabric.002_Fabric_Mat_0",
      "primitives": [
        {
          "attributes": {
            "NORMAL": 29,
            "POSITION": 28,
            "TEXCOORD_0": 30
          },
          "indices": 31,
          "material": 6,
          "mode": 4
        }
      ]
    },
    {
      "name": "Roue01.002_Roue_Mat_0",
      "primitives": [
        {
          "attributes": {
            "NORMAL": 33,
            "POSITION": 32,
            "TEXCOORD_0": 34,
            "TEXCOORD_1": 35
          },
          "indices": 36,
          "material": 7,
          "mode": 4
        }
      ]
    },
    {
      "name": "Roue02.002_Roue_Mat_0",
      "primitives": [
        {
          "attributes": {
            "NORMAL": 38,
            "POSITION": 37,
            "TEXCOORD_0": 39,
            "TEXCOORD_1": 40
          },
          "indices": 41,
          "material": 7,
          "mode": 4
        }
      ]
    },
    {
      "name": "Roue03.002_Roue_Mat_0",
      "primitives": [
        {
          "attributes": {
            "NORMAL": 43,
            "POSITION": 42,
            "TEXCOORD_0": 44,
            "TEXCOORD_1": 45
          },
          "indices": 46,
          "material": 7,
          "mode": 4
        }
      ]
    },
    {
      "name": "Roue04.002_Roue_Mat_0",
      "primitives": [
        {
          "attributes": {
            "NORMAL": 48,
            "POSITION": 47,
            "TEXCOORD_0": 49,
            "TEXCOORD_1": 50
          },
          "indices": 51,
          "material": 7,
          "mode": 4
        }
      ]
    },
    {
      "name": "Roue05.002_Roue_Mat_0",
      "primitives": [
        {
          "attributes": {
            "NORMAL": 53,
            "POSITION": 52,
            "TEXCOORD_0": 54,
            "TEXCOORD_1": 55
          },
          "indices": 56,
          "material": 7,
          "mode": 4
        }
      ]
    }
  ],
  "nodes": [
    {
      "children": [
        1
      ],
      "matrix": [
        1.0,
        0.0,
        0.0,
        0.0,
        0.0,
        2.220446049250313e-16,
        -1.0,
        0.0,
        0.0,
        1.0,
        2.220446049250313e-16,
        0.0,
        0.0,
        0.0,
        0.0,
        1.0
      ],
      "name": "Sketchfab_model"
    },
    {
      "children": [
        2
      ],
      "matrix": [
        0.009999999776482582,
        0.0,
        0.0,
        0.0,
        0.0,
        0.0,
        0.009999999776482582,
        0.0,
        0.0,
        -0.009999999776482582,
        0.0,
        0.0,
        0.0,
        0.0,
        0.0,
        1.0
      ],
      "name": "93469d73bfd642bc95fae5c5bb4f89dc.fbx"
    },
    {
      "children": [
        3
      ],
      "name": "RootNode"
    },
    {
      "children": [
        4,
        5,
        15,
        17,
        19,
        21,
        23
      ],
      "matrix": [
        100.0,
        0.0,
        0.0,
        0.0,
        0.0,
        -1.629206793918314e-05,
        -99.99999999999868,
        0.0,
        0.0,
        99.99999999999868,
        -1.629206793918314e-05,
        0.0,
        40.30384826660156,
        0.0,
        0.0,
        1.0
      ],
      "name": "Chair"
    },
    {
      "mesh": 0,
      "name": "Chair_Chair_Mat_0"
    },
    {
      "children": [
        6,
        7,
        8,
        9,
        11,
        13
      ],
      "matrix": [
        1.0,
        0.0,
        0.0,
        0.0,
        0.0,
        1.0,
        -2.646977960169688e-23,
        0.0,
        0.0,
        2.646977960169688e-23,
        1.0,
        0.0,
        0.0,
        0.0,
        0.0,
        1.0
      ],
      "name": "Middle.002"
    },
    {
      "mesh": 1,
      "name": "Middle.002_BlackPlastic_0"
    },
    {
      "mesh": 2,
      "name": "Middle.002_BlackMetal_0"
    },
    {
      "mesh": 3,
      "name": "Middle.002_GreyMetal_0"
    },
    {
      "children": [
        10
      ],
      "matrix": [
        1.0,
        0.0,
        0.0,
        0.0,
        0.0,
        1.0,
        -2.646977960169688e-23,
        0.0,
        0.0,
        2.646977960169688e-23,
        1.0,
        0.0,
        0.0,
        0.0,
        0.0,
        1.0
      ],
      "name": "Middle_Fabric.001"
    },
    {
      "mesh": 4,
      "name": "Middle_Fabric.001_Middle_Fabric_Mat_0"
    },
    {
      "children": [
        12
      ],
      "matrix": [
        1.0,
        0.0,
        0.0,
        0.0,
        0.0,
        1.0,
        -2.646977960169688e-23,
        0.0,
        0.0,
        2.646977960169688e-23,
        1.0,
        0.0,
        0.0,
        0.0,
        0.0,
        1.0
      ],
      "name": "Back.002"
    },
    {
      "mesh": 5,
      "name": "Back.002_Back_Mat_0"
    },
    {
      "children": [
        14
      ],
      "matrix": [
        1.0,
        0.0,
        0.0,
        0.0,
        0.0,
        1.0,
        -2.646977960169688e-23,
        0.0,
        0.0,
        2.646977960169688e-23,
        1.0,
        0.0,
        0.0,
        0.0,
        0.0,
        1.0
      ],
      "name": "Fabric.002"
    },
    {
      "mesh": 6,
      "name": "Fabric.002_Fabric_Mat_0"
    },
    {
      "children": [
        16
      ],
      "matrix": [
        1.0,
        0.0,
        0.0,
        0.0,
        0.0,
        1.0,
        -2.646977960169688e-23,
        0.0,
        0.0,
        2.646977960169688e-23,
        1.0,
        0.0,
        0.0,
        0.0,
        0.0,
        1.0
      ],
      "name": "Roue01.002"
    },
    {
      "mesh": 7,
      "name": "Roue01.002_Roue_Mat_0"
    },
    {
      "children": [
        18
      ],
      "matrix": [
        1.0,
        0.0,
        0.0,
        0.0,
        0.0,
        1.0,
        -2.646977960169688e-23,
        0.0,
        0.0,
        2.646977960169688e-23,
        1.0,
        0.0,
        0.0,
        0.0,
        0.0,
        1.0
      ],
      "name": "Roue02.002"
    },
    {
      "mesh": 8,
      "name": "Roue02.002_Roue_Mat_0"
    },
    {
      "children": [
        20
      ],
      "matrix": [
        1.0,
        0.0,
        0.0,
        0.0,
        0.0,
        1.0,
        -2.646977960169688e-23,
        0.0,
        0.0,
        2.646977960169688e-23,
        1.0,
        0.0,
        0.0,
        0.0,
        0.0,
        1.0
      ],
      "name": "Roue03.002"
    },
    {
      "mesh": 9,
      "name": "Roue03.002_Roue_Mat_0"
    },
    {
      "children": [
        22
      ],
      "matrix": [
        1.0,
        0.0,
        0.0,
        0.0,
        0.0,
        1.0,
        -2.646977960169688e-23,
        0.0,
        0.0,
        2.646977960169688e-23,
        1.0,
        0.0,
        0.0,
        0.0,
        0.0,
        1.0
      ],
      "name": "Roue04.002"
    },
    {
      "mesh": 10,
      "name": "Roue04.002_Roue_Mat_0"
    },
    {
      "children": [
        24
      ],
      "matrix": [
        1.0,
        0.0,
        0.0,
        0.0,
        0.0,
        1.0,
        -2.646977960169688e-23,
        0.0,
        0.0,
        2.646977960169688e-23,
        1.0,
        0.0,
        0.0,
        0.0,
        0.0,
        1.0
      ],
      "name": "Roue05.002"
    },
    {
      "mesh": 11,
      "name": "Roue05.002_Roue_Mat_0"
    }
  ],
  "samplers": [
    {
      "magFilter": 9729,
      "minFilter": 9987,
      "wrapS": 10497,
      "wrapT": 10497
    }
  ],
  "scene": 0,
  "scenes": [
    {
      "name": "Sketchfab_Scene",
      "nodes": [
        0
      ]
    }
  ],
  "textures": [
    {
      "sampler": 0,
      "source": 0
    },
    {
      "sampler": 0,
      "source": 1
    },
    {
      "sampler": 0,
      "source": 2
    },
    {
      "sampler": 0,
      "source": 3
    },
    {
      "sampler": 0,
      "source": 4
    },
    {
      "sampler": 0,
      "source": 5
    },
    {
      "sampler": 0,
      "source": 6
    },
    {
      "sampler": 0,
      "source": 7
    },
    {
      "sampler": 0,
      "source": 8
    },
    {
      "sampler": 0,
      "source": 9
    },
    {
      "sampler": 0,
      "source": 10
    },
    {
      "sampler": 0,
      "source": 11
    }
  ]
}
